<?xml version="1.0" standalone="no"?>
<!DOCTYPE svg PUBLIC "-//W3C//DTD SVG 20010904//EN"
 "http://www.w3.org/TR/2001/REC-SVG-20010904/DTD/svg10.dtd">
<svg version="1.0" xmlns="http://www.w3.org/2000/svg"
 width="512.000000pt" height="512.000000pt" viewBox="0 0 512.000000 512.000000"
 preserveAspectRatio="xMidYMid meet">
<metadata>
Created by potrace 1.14, written by Peter Selinger 2001-2017
</metadata>
<g transform="translate(0.000000,512.000000) scale(0.100000,-0.100000)"
fill="#000000" stroke="none">
<path d="M1 3296 c0 -1426 2 -1826 12 -1829 9 -4 9 -6 0 -6 -10 -1 -13 -160
-13 -731 l0 -730 2560 0 2560 0 0 2560 0 2560 -2560 0 -2559 0 0 -1824z m1212
1756 c9 -8 17 -11 17 -6 0 21 50 -68 58 -103 9 -45 9 -49 -8 -88 -7 -16 -12
-34 -11 -38 1 -5 -3 -6 -8 -3 -5 4 -17 -1 -26 -10 -15 -15 -97 -23 -135 -12
-25 7 -62 29 -57 35 3 2 -3 24 -14 47 -20 46 -15 84 16 133 37 56 125 80 168
45z m2819 -22 c23 0 84 -55 87 -77 11 -95 -36 -165 -120 -177 -29 -4 -45 0
-75 21 -53 36 -68 60 -65 106 1 21 -3 46 -11 55 -12 15 -11 16 4 4 11 -9 18
-10 23 -2 3 5 1 10 -4 10 -23 0 -10 20 17 26 15 4 34 12 42 19 22 18 43 24 65
20 11 -3 28 -5 37 -5z m-112 -4 c0 -3 -4 -8 -10 -11 -5 -3 -10 -1 -10 4 0 6 5
11 10 11 6 0 10 -2 10 -4z m-1500 -52 c0 -8 -4 -12 -10 -9 -5 3 -10 10 -10 16
0 5 5 9 10 9 6 0 10 -7 10 -16z m1720 -124 c0 -5 -2 -10 -4 -10 -3 0 -8 5 -11
10 -3 6 -1 10 4 10 6 0 11 -4 11 -10z m625 -77 c83 -41 114 -76 131 -151 25
-103 19 -151 -25 -219 -39 -61 -78 -97 -140 -128 -41 -21 -153 -17 -191 7 -14
8 -44 24 -67 34 -24 10 -43 21 -43 26 0 16 -56 64 -70 60 -10 -2 -11 0 -5 5
14 10 17 53 4 53 -6 0 -7 5 -4 10 4 6 2 16 -3 23 -15 18 4 120 33 177 13 26
21 51 17 55 -4 5 -2 6 3 3 6 -4 24 5 40 19 17 14 24 22 16 18 -10 -6 -12 -4
-7 4 5 7 10 10 13 7 3 -3 20 2 37 11 81 42 157 38 261 -14z m-659 25 c4 -7 4
-10 -1 -6 -4 4 -15 2 -24 -5 -14 -11 -14 -10 -2 6 16 20 18 21 27 5z m318 -6
c3 -5 -1 -9 -9 -9 -8 0 -12 4 -9 9 3 4 7 8 9 8 2 0 6 -4 9 -8z m-3827 -38 c27
-16 63 -45 80 -64 37 -43 92 -137 73 -125 -9 6 -11 4 -5 -5 28 -45 -10 -201
-53 -225 -15 -8 -23 -14 -18 -15 5 0 -3 -11 -18 -25 -15 -14 -25 -29 -22 -34
3 -5 -4 -12 -17 -16 -32 -11 -37 -12 -39 -15 -2 -1 -10 -3 -18 -5 -8 -1 -27
-6 -41 -10 -16 -4 -30 -2 -33 4 -4 6 -18 11 -31 11 -39 0 -132 41 -174 76 -29
25 -45 50 -60 96 -25 73 -26 120 -6 178 8 23 12 47 8 53 -3 6 -1 7 5 3 7 -4
12 -1 12 7 0 7 9 23 20 35 12 12 17 22 13 22 -15 0 67 50 114 70 67 27 144 21
210 -16z m2143 -69 c148 -18 347 -72 465 -125 22 -10 65 -28 95 -41 137 -57
195 -125 267 -319 53 -140 103 -392 103 -514 0 -49 -1 -51 -28 -36 -110 63
-370 141 -627 189 -251 47 -337 56 -530 55 -229 0 -458 -34 -685 -100 -156
-46 -335 -113 -374 -140 -32 -22 -36 -18 -36 45 0 95 49 314 98 436 92 230
151 303 306 380 94 46 121 56 267 105 219 72 451 94 679 65z m1635 -5 c3 -5 1
-10 -4 -10 -6 0 -11 5 -11 10 0 6 2 10 4 10 3 0 8 -4 11 -10z m-4312 -60 c-3
-12 -8 -19 -11 -16 -5 6 5 36 12 36 2 0 2 -9 -1 -20z m3888 -92 c48 -16 75
-49 83 -101 12 -76 -19 -118 -98 -132 -62 -12 -119 22 -147 88 -9 22 -8 36 7
75 10 26 17 54 16 62 -1 10 1 11 4 3 4 -10 11 -10 27 2 26 18 62 19 108 3z
m-2626 -44 c29 -27 36 -72 20 -124 -7 -22 -6 -23 9 -11 9 7 16 10 16 6 0 -4 8
-2 18 5 9 8 1 -2 -19 -21 -19 -19 -43 -45 -52 -59 -9 -13 -17 -19 -17 -12 0 7
-4 11 -9 7 -5 -3 -13 0 -16 6 -5 7 1 9 15 7 13 -2 25 3 28 11 3 9 0 11 -8 6
-9 -5 -11 -4 -6 4 4 6 11 9 16 6 5 -3 11 -1 15 5 8 13 1 13 -45 -1 -74 -22
-140 21 -140 91 0 21 -3 47 -6 57 -4 13 -3 14 3 5 7 -10 14 -7 29 13 16 21 27
25 70 25 41 0 57 -5 79 -26z m2276 -125 c33 -28 71 -72 86 -98 14 -25 34 -55
44 -66 23 -27 86 -182 93 -231 5 -30 4 -34 -4 -19 -7 15 -8 9 -3 -25 3 -25 9
-94 14 -155 l7 -110 -2 112 c-1 62 0 111 2 108 10 -10 32 -182 32 -252 l0 -73
-27 11 c-16 5 -43 17 -60 27 -31 15 -33 20 -34 69 -1 29 -2 56 -3 61 -1 4 -6
48 -10 97 -4 50 -16 128 -27 175 -27 112 -111 325 -150 378 -17 23 -28 42 -24
42 4 0 34 -23 66 -51z m-2098 -56 c-65 -115 -103 -207 -134 -330 -41 -162 -59
-259 -59 -320 0 -52 -1 -53 -41 -74 l-42 -21 7 89 c4 48 12 108 17 133 6 25
17 86 25 135 19 122 107 300 195 398 34 37 64 66 66 63 3 -3 -12 -36 -34 -73z
m1207 -523 c173 -14 458 -75 634 -134 212 -71 596 -249 615 -284 7 -14 5 -28
-7 -53 -21 -42 -53 -49 -71 -16 -13 24 -55 48 -256 143 -324 153 -610 230
-980 264 -449 41 -877 -57 -1277 -293 -88 -52 -158 -109 -158 -128 0 -16 -21
-9 -45 16 -38 37 -32 68 18 109 86 70 420 229 597 284 97 30 344 81 435 91
113 12 359 12 495 1z m2047 -145 c45 -19 79 -55 88 -94 4 -17 11 -33 16 -36
12 -8 12 -135 0 -135 -5 0 -13 -10 -17 -22 -4 -13 -15 -29 -26 -36 -10 -7 -16
-17 -13 -22 3 -5 -7 -12 -22 -16 -15 -4 -33 -11 -40 -16 -14 -11 -153 -17
-153 -6 0 3 -12 10 -27 16 -33 12 -73 45 -73 61 0 6 -4 19 -10 29 -16 29 -29
112 -18 118 5 3 7 12 4 20 -3 8 -1 14 5 14 6 0 9 7 5 15 -7 19 83 112 115 118
53 10 132 6 166 -8z m-4262 -37 c43 -15 91 -71 110 -129 15 -43 15 -57 4 -96
-7 -25 -23 -57 -36 -72 -40 -45 -43 -50 -43 -62 0 -6 -8 -9 -20 -6 -10 3 -21
0 -23 -6 -2 -6 -30 -10 -65 -10 -64 0 -108 20 -165 77 -14 14 -27 22 -30 18
-2 -4 -2 -1 -1 6 2 7 -1 25 -7 40 -14 36 -15 132 -1 141 6 3 14 19 17 34 4 15
11 27 15 27 5 0 16 8 25 17 37 37 146 47 220 21z m2140 -228 c105 -5 204 -12
221 -15 l32 -6 -59 -56 c-102 -97 -149 -206 -149 -342 0 -136 41 -239 133
-338 81 -87 157 -123 269 -130 180 -12 323 77 409 253 33 67 34 72 34 194 0
121 -1 128 -32 191 -18 36 -52 88 -75 114 l-43 48 30 -7 c17 -4 69 -21 116
-38 80 -27 87 -32 93 -60 3 -17 6 -164 6 -328 0 -293 0 -298 -22 -326 -19 -23
-24 -45 -28 -125 -4 -77 -9 -101 -25 -119 -28 -31 -270 -173 -496 -292 -55
-28 -176 -38 -489 -38 -388 0 -425 5 -570 76 -168 83 -373 209 -414 254 -35
39 -36 43 -36 118 0 84 -26 162 -55 162 -18 0 -20 -23 -3 -53 7 -12 15 -71 18
-131 l5 -110 70 -46 c226 -150 451 -269 550 -292 87 -19 807 -19 885 1 60 15
166 69 385 194 77 44 157 89 178 100 42 21 46 32 50 132 3 63 3 61 5 -22 1
-52 -2 -93 -7 -93 -5 0 -9 -23 -7 -50 2 -61 -2 -66 -129 -137 -245 -138 -387
-193 -551 -213 -132 -17 -593 -18 -714 -2 -152 19 -278 56 -398 115 -129 65
-290 162 -314 189 -17 19 -18 19 -18 2 0 -11 -7 -27 -15 -38 -10 -13 -11 -25
-4 -43 5 -13 9 -31 9 -40 0 -13 -3 -13 -16 -2 -16 13 -15 40 1 99 4 16 3 20
-2 12 -7 -9 -10 -2 -10 20 -1 18 -7 64 -14 101 -10 55 -10 122 -1 330 15 320
38 617 49 628 4 4 60 26 124 47 l116 39 -43 -63 c-60 -89 -85 -163 -91 -264
-6 -92 4 -153 38 -245 31 -82 132 -184 215 -214 121 -46 268 -35 369 27 197
121 281 412 179 621 -31 62 -134 170 -181 190 -18 7 -30 17 -27 22 7 12 212
11 449 -1z m-472 -39 c244 -118 300 -463 106 -662 -95 -97 -235 -139 -352
-105 -61 18 -175 90 -191 121 -6 11 -14 22 -18 25 -4 3 -17 28 -30 55 -20 44
-23 66 -23 180 0 123 2 134 29 193 40 87 135 175 220 202 82 27 193 23 259 -9z
m1090 -13 c79 -42 149 -115 190 -198 30 -61 32 -71 32 -175 0 -98 -3 -116 -27
-167 -15 -33 -52 -83 -85 -116 -76 -77 -145 -106 -258 -106 -71 -1 -88 3 -148
32 -78 39 -122 80 -171 164 -47 79 -59 131 -54 232 3 68 10 96 36 148 40 83
87 135 156 177 73 44 105 51 195 46 58 -4 86 -12 134 -37z m-1863 -136 c0 -5
-3 -11 -6 -14 -3 -3 -5 -217 -4 -476 0 -412 -1 -470 -15 -476 -8 -3 -16 -16
-16 -28 -1 -17 -2 -19 -6 -5 -2 9 -9 15 -14 12 -5 -4 -9 8 -9 25 0 18 -4 29
-10 25 -5 -3 -10 -16 -10 -28 0 -13 -4 -17 -9 -12 -23 24 -40 652 -24 874 5
82 9 94 27 101 27 11 96 12 96 2z m2354 -18 c15 -40 -3 -1008 -20 -1103 -5
-24 -3 -32 5 -27 7 5 11 -4 11 -26 0 -37 -19 -79 -20 -43 0 15 -2 17 -9 6 -5
-8 -11 -9 -15 -3 -3 5 1 15 9 22 15 13 21 35 7 26 -5 -3 -9 30 -11 72 -3 104
-11 105 -11 1 0 -53 -4 -79 -9 -70 -5 8 -9 36 -9 62 -1 27 -5 56 -11 66 -6 12
-7 204 -4 526 l6 507 37 0 c25 0 40 -5 44 -16z m106 -4 c0 -5 6 -10 13 -10 8
0 23 -20 35 -44 20 -40 22 -58 22 -225 0 -305 -20 -732 -35 -747 -11 -11 -14
-11 -19 2 -3 9 -6 26 -6 39 0 34 -30 42 -31 7 -1 -16 -6 -3 -15 33 -15 66 -19
524 -7 769 6 127 8 138 27 146 20 8 20 9 -4 10 -14 1 -19 4 -12 7 6 2 10 9 6
14 -3 5 2 9 10 9 9 0 16 -4 16 -10z m-2635 -442 c7 -424 6 -498 -12 -498 -7 0
-15 12 -19 28 -12 54 -13 46 -11 -51 1 -53 -1 -97 -5 -97 -5 0 -8 3 -8 6 0 17
-31 261 -35 274 -8 26 -35 497 -35 608 l0 102 59 0 59 0 7 -372z m2870 260
c-6 -98 -14 -225 -42 -611 -3 -50 -10 -83 -14 -75 -6 9 -9 8 -15 -5 -3 -9 -12
-17 -20 -17 -8 0 -14 -7 -14 -15 0 -8 -5 -15 -11 -15 -12 0 -7 438 7 728 l6
122 55 0 54 0 -6 -112z m-3056 -62 c6 -61 15 -219 21 -351 6 -132 13 -268 17
-302 10 -103 -11 -74 -50 70 -36 134 -51 232 -66 432 -8 94 -8 82 -6 -87 2
-109 0 -198 -4 -198 -32 0 -51 118 -51 310 0 90 4 124 19 155 22 49 90 113
101 94 5 -6 13 -62 19 -123z m3209 16 c24 -53 25 -61 19 -181 -9 -160 -25
-234 -76 -348 -23 -50 -41 -100 -41 -111 0 -12 -4 -24 -10 -27 -6 -4 -11 14
-11 47 l-2 53 -7 -40 c-11 -62 -11 -17 0 138 6 78 14 233 19 344 5 110 12 206
16 212 12 21 67 -30 93 -87z m-3676 -274 c22 -13 46 -35 54 -51 8 -15 18 -25
23 -23 21 14 42 -194 21 -214 -3 -3 -14 -23 -25 -45 -23 -46 -79 -79 -162 -94
-41 -8 -58 -7 -80 4 -15 8 -32 15 -37 15 -26 0 -108 76 -127 118 -24 53 -36
138 -18 126 8 -4 9 0 4 15 -6 21 21 81 38 81 5 0 6 7 3 16 -5 12 -2 15 9 10 9
-3 18 1 22 10 6 16 54 45 93 56 44 12 140 -1 182 -24z m4235 -49 c64 -31 115
-111 121 -187 5 -66 -25 -163 -57 -191 -12 -10 -18 -21 -15 -24 3 -3 -5 -8
-18 -12 -13 -4 -31 -17 -40 -29 -15 -18 -26 -21 -87 -20 -84 2 -147 29 -188
81 -15 19 -35 43 -43 52 -24 26 -23 116 2 191 11 35 27 71 34 78 8 7 19 21 26
30 47 62 171 76 265 31z m-3814 -196 c23 -105 30 -162 17 -140 -11 17 -14 27
-30 102 -10 42 -13 105 -6 105 3 0 11 -30 19 -67z m2984 -245 c-2 -13 -4 -5
-4 17 -1 22 1 32 4 23 2 -10 2 -28 0 -40z m130 15 c-3 -10 -5 -4 -5 12 0 17 2
24 5 18 2 -7 2 -21 0 -30z m-2880 -15 c-3 -8 -6 -5 -6 6 -1 11 2 17 5 13 3 -3
4 -12 1 -19z m2606 -139 c-6 -6 -7 3 -4 23 4 28 6 29 9 9 2 -13 0 -27 -5 -32z
m44 29 c-3 -8 -6 -5 -6 6 -1 11 2 17 5 13 3 -3 4 -12 1 -19z m-2364 -101 c-8
-17 -10 -12 -10 28 0 45 0 47 9 22 7 -19 7 -36 1 -50z m-40 37 c7 -7 -2 -34
-12 -34 -4 0 -7 9 -7 20 0 20 7 25 19 14z m2188 -64 c22 0 6 -15 -16 -16 -14
-1 -58 -18 -98 -37 -40 -19 -83 -38 -97 -42 -14 -3 -34 -10 -45 -15 -21 -9
-82 -28 -195 -60 -129 -36 -260 -45 -630 -45 -219 1 -391 6 -450 13 -126 16
-126 16 -141 29 -8 6 -30 14 -49 18 -19 4 -82 18 -140 32 -58 14 -112 26 -120
26 -28 0 -57 36 -58 72 -1 34 0 35 34 35 20 0 48 -8 62 -19 45 -31 219 -90
331 -111 193 -38 632 -47 906 -19 182 18 353 66 615 173 l55 22 14 -28 c7 -15
17 -28 22 -28z m-2927 -5 c36 -17 76 -82 76 -123 0 -14 -9 -45 -21 -69 -17
-35 -28 -45 -60 -53 -53 -15 -127 -3 -134 20 -3 9 -14 25 -25 35 -35 32 -24
128 21 175 23 24 38 30 70 30 23 0 56 -7 73 -15z m3156 -25 c0 -5 -5 -10 -11
-10 -5 0 -7 5 -4 10 3 6 8 10 11 10 2 0 4 -4 4 -10z m-650 -250 c0 -5 -7 -10
-16 -10 -8 0 -12 5 -9 10 3 6 10 10 16 10 5 0 9 -4 9 -10z m-144 -32 c-3 -13
-5 -80 -5 -150 -1 -112 -3 -128 -19 -137 -14 -7 -18 -6 -18 9 0 10 5 16 11 12
5 -3 4 2 -4 11 -10 13 -12 45 -8 144 3 71 6 129 6 131 1 1 10 2 21 2 15 0 19
-5 16 -22z m1196 -28 c22 -44 22 -74 2 -105 -38 -57 -127 -34 -139 37 -13 74
27 121 90 108 21 -4 35 -16 47 -40z m-2338 -22 c13 -65 16 -98 8 -98 -24 0
-51 72 -39 105 9 22 26 18 31 -7z m1305 -28 c0 -9 -4 -8 -9 5 -5 11 -9 27 -9
35 0 9 4 8 9 -5 5 -11 9 -27 9 -35z m-6 -21 c4 -3 1 -12 -8 -19 -8 -7 -15 -11
-16 -9 -1 2 -2 22 -4 44 -3 37 -2 38 8 15 6 -14 15 -28 20 -31z m-1043 31 c0
-4 8 -7 18 -7 9 1 187 0 395 -1 l377 -2 0 -127 c0 -71 -4 -134 -8 -140 -18
-28 -125 -35 -442 -30 -302 5 -401 14 -428 41 -8 8 -30 256 -24 269 5 9 112 7
112 -3z m1120 -15 c0 -14 -4 -25 -10 -25 -11 0 -14 33 -3 43 11 11 13 8 13
-18z m-1478 -10 c-4 -21 -32 -46 -47 -41 -18 5 -17 39 1 53 25 18 50 12 46
-12z m1571 16 c4 -1 7 -5 7 -10 0 -5 -9 -7 -21 -4 -12 4 -25 0 -30 -8 -7 -11
-9 -11 -9 -1 0 7 -4 10 -10 7 -5 -3 -10 0 -10 8 0 13 22 16 73 8z m-1657 -58
c18 -24 17 -41 -1 -59 -15 -15 -20 -75 -20 -254 0 -59 -3 -75 -15 -75 -10 0
-15 15 -17 60 -1 33 -7 89 -13 125 -12 69 -5 186 12 208 15 17 39 15 54 -5z
m1722 -126 l-3 -112 -40 -52 c-21 -29 -40 -51 -41 -50 0 1 3 36 7 77 12 117
11 202 -3 194 -8 -5 -9 0 -6 14 4 12 2 25 -3 28 -19 11 -8 21 34 30 32 8 44 7
50 -4 5 -7 7 -64 5 -125z m-1462 96 c3 -14 -1 -23 -9 -23 -19 0 -36 21 -30 37
8 21 36 11 39 -14z m-396 -120 c0 -67 -3 -93 -10 -83 -13 20 -13 180 0 180 6
0 10 -39 10 -97z m1729 -8 c-4 -55 -12 -120 -18 -145 -6 -25 -14 -106 -17
-180 -6 -124 -5 -133 10 -115 31 39 15 4 -20 -45 -50 -70 -98 -94 -234 -119
-180 -32 -362 -43 -595 -36 -254 8 -379 25 -481 64 -43 17 -81 28 -86 25 -14
-9 -57 35 -79 79 -17 32 -21 66 -25 195 -3 86 -10 185 -16 219 -5 34 -7 67 -3
73 4 6 25 -19 50 -62 l43 -73 4 -190 c2 -128 8 -197 16 -210 11 -18 12 -18 6
7 -9 43 5 54 30 24 28 -35 169 -71 343 -87 170 -16 676 -7 753 14 30 8 72 18
93 21 20 4 53 20 71 37 l34 30 4 162 3 162 42 94 c53 117 42 108 -31 -27 l-56
-103 0 -127 c0 -148 -4 -159 -79 -190 -104 -45 -214 -57 -521 -56 -157 1 -323
6 -370 13 -98 13 -227 53 -264 82 -26 20 -26 21 -26 180 l0 159 -39 43 c-51
56 -91 116 -91 137 0 10 6 23 14 29 20 17 46 -1 79 -53 14 -23 38 -53 54 -66
l27 -25 -18 28 c-27 44 -11 44 18 0 14 -21 33 -48 41 -60 10 -13 21 -66 29
-140 14 -129 30 -170 75 -202 58 -42 106 -51 300 -57 262 -9 499 7 576 38 80
32 91 54 99 188 5 94 4 102 -8 75 -8 -16 -19 -61 -24 -98 -17 -115 -46 -139
-183 -157 -112 -14 -622 -13 -674 1 -77 22 -114 80 -129 204 l-6 50 31 -60
c39 -74 63 -101 114 -127 37 -19 63 -21 320 -26 350 -6 378 -1 451 72 37 36
55 64 64 96 29 108 44 135 107 196 35 34 63 59 63 57 0 -3 -16 -26 -36 -51
-26 -34 -18 -28 29 22 37 38 83 79 104 91 21 12 38 21 39 21 0 -1 -3 -46 -7
-101z m1452 94 c47 -16 76 -45 95 -95 11 -30 14 -56 9 -81 -4 -21 -7 -46 -6
-56 0 -9 -4 -15 -8 -13 -4 3 -14 -4 -21 -15 -8 -10 -21 -19 -30 -20 -10 0 -9
-3 5 -9 14 -6 15 -9 5 -10 -57 -5 -108 -11 -123 -14 -9 -2 -15 0 -11 5 4 8
-16 13 -38 10 -11 -1 -43 49 -61 97 -16 40 -16 47 -2 97 29 97 95 134 186 104z
m-1131 -19 c20 -5 45 -17 55 -25 19 -14 19 -15 1 -8 -13 4 -17 3 -13 -4 5 -7
-9 -14 -35 -18 l-43 -8 42 -16 c23 -9 48 -22 54 -28 12 -12 8 -129 -21 -568
-6 -77 -10 -206 -10 -286 l0 -146 -53 1 -53 0 12 61 c7 33 17 83 23 110 12 55
46 583 38 591 -2 3 -8 -39 -11 -93 -16 -226 -71 -613 -88 -613 -4 0 -29 23
-55 51 -55 59 -174 164 -194 171 -10 4 -7 13 12 34 63 69 142 216 194 361 38
104 40 129 6 61 -21 -40 -22 -41 -19 -13 2 17 7 33 11 36 4 3 13 53 18 110 6
57 15 108 20 114 5 5 9 22 9 37 0 16 6 28 13 28 7 0 8 3 2 8 -5 4 -9 14 -9 22
1 8 2 21 3 28 1 14 43 16 91 2z m430 -127 c82 -27 85 -29 88 -60 2 -20 -1 -33
-8 -33 -6 0 -9 -4 -6 -8 3 -5 -5 -53 -16 -108 -20 -90 -22 -129 -22 -437 l-1
-337 -142 0 c-78 0 -148 -2 -155 -5 -11 -4 -18 9 -28 49 -7 31 -16 53 -20 51
-4 -2 -7 12 -8 33 -1 20 -4 51 -7 67 -4 23 -3 25 4 10 5 -13 9 47 10 160 2
249 30 657 47 687 5 7 138 -27 264 -69z m-2715 42 c3 -14 7 -35 10 -48 33
-164 125 -961 112 -974 -2 -1 -95 -3 -208 -4 l-204 -2 -6 244 c-9 340 -21 559
-30 529 -6 -21 -7 -19 -8 15 -1 22 -4 69 -7 105 l-7 66 39 16 c44 18 159 54
219 67 70 16 84 13 90 -14z m-913 -19 c4 -6 8 -7 8 -3 0 19 57 -28 77 -63 30
-51 38 -110 23 -164 -16 -57 -40 -83 -90 -96 -22 -6 -40 -16 -41 -23 0 -8 -2
-7 -6 2 -5 11 -7 11 -14 0 -6 -10 -9 -11 -9 -1 0 6 -7 12 -15 12 -8 0 -15 -6
-15 -12 0 -9 -3 -8 -10 2 -5 8 -12 11 -16 8 -4 -4 -16 -2 -28 4 -11 7 -25 13
-31 14 -34 5 -56 19 -60 40 -16 78 -16 78 -25 63 -16 -25 -2 56 20 114 24 65
31 72 107 102 58 24 110 24 125 1z m1013 14 c4 -6 13 -5 25 2 11 7 22 9 25 6
4 -3 13 -39 21 -80 19 -90 87 -291 130 -379 41 -85 112 -193 158 -241 l35 -38
-96 -97 c-96 -98 -113 -123 -105 -156 3 -15 9 -10 30 22 34 50 140 171 170
195 22 17 24 17 88 -34 74 -58 174 -108 234 -117 42 -6 50 -12 50 -34 0 -15 4
-19 16 -15 9 3 25 6 37 7 21 0 21 1 2 8 -11 5 -23 7 -27 4 -5 -2 -8 1 -8 8 0
8 12 10 43 5 23 -4 85 -10 137 -13 53 -3 98 -10 102 -17 6 -8 8 -8 8 0 0 6 19
11 45 10 25 -1 45 -5 45 -10 0 -6 5 -5 12 2 8 8 15 9 25 1 9 -8 13 -8 13 0 0
15 27 14 33 -1 4 -9 8 -9 14 -3 4 6 27 11 50 13 24 1 55 7 69 12 67 26 142 4
141 -41 0 -13 -7 -15 -36 -8 -27 6 -40 4 -53 -7 -17 -16 -63 -10 -53 6 3 5 13
6 23 3 9 -3 14 -2 9 2 -14 16 -87 14 -87 -1 0 -8 -5 -14 -11 -14 -5 0 -8 4 -5
8 2 4 -28 8 -67 9 -207 1 -248 4 -242 13 8 13 -27 1 -40 -14 -11 -13 -56 -16
-49 -4 3 4 0 8 -5 8 -6 0 -11 -5 -11 -11 0 -7 -11 -8 -30 -4 -19 4 -30 3 -30
-4 0 -6 -7 -11 -16 -11 -8 0 -12 5 -9 10 3 6 0 10 -7 11 -7 0 -4 4 7 9 19 8
19 9 -2 9 -13 1 -23 -3 -23 -9 0 -5 -6 -9 -12 -7 -7 1 -12 -4 -11 -11 3 -14
-23 -15 -398 -16 l-247 -1 -5 50 c-3 28 -17 147 -31 265 -14 117 -26 221 -27
230 -1 8 -5 4 -10 -10 -7 -21 -8 -19 -5 12 3 20 -2 67 -10 105 -8 37 -21 122
-29 188 -8 66 -17 135 -21 153 -6 31 7 45 21 22z m708 -145 c-3 -9 -8 -14 -10
-11 -3 3 -2 9 2 15 9 16 15 13 8 -4z m794 1 c3 -3 -15 -14 -39 -26 -41 -20
-55 -21 -375 -19 -193 1 -332 -2 -330 -7 1 -5 150 -9 344 -9 l342 0 -22 -40
c-16 -28 -31 -42 -52 -46 -40 -9 -524 -11 -564 -3 -41 8 -67 46 -74 109 l-5
50 385 -2 c212 -2 388 -5 390 -7z m462 -29 c-10 -36 -29 -43 -29 -10 0 16 30
57 36 50 2 -2 -1 -20 -7 -40z m-1772 -9 c-3 -7 -5 -2 -5 12 0 14 2 19 5 13 2
-7 2 -19 0 -25z m2626 -21 c12 -19 13 -53 5 -217 -5 -107 -7 -266 -4 -352 l5
-158 -28 0 c-53 0 -56 12 -55 254 1 122 7 259 14 306 6 47 14 111 17 142 6 60
18 67 46 25z m-3325 -59 c16 -89 36 -483 29 -555 -6 -55 -38 -113 -62 -113
-10 0 -13 48 -14 248 -1 273 -9 418 -23 445 -12 23 6 47 36 47 19 0 23 -9 34
-72z m2402 -12 c9 -29 7 -39 -15 -82 -15 -27 -24 -41 -21 -31 3 10 6 48 6 83
0 70 12 83 30 30z m-2517 -288 c-3 -156 -6 -289 -9 -296 -2 -7 -8 -10 -14 -7
-6 4 -10 100 -10 258 0 235 8 327 29 327 5 0 6 -127 4 -282z m3507 262 c13 -8
15 -46 17 -232 1 -145 -2 -206 -7 -173 -5 28 -9 95 -9 150 -1 97 -14 215 -27
249 -7 18 3 21 26 6z m-915 -107 c-9 -37 -88 -169 -93 -155 -2 6 17 45 42 86
25 42 46 80 46 86 0 5 3 10 6 10 3 0 3 -12 -1 -27z m-285 -87 c0 -2 -13 -9
-30 -15 -35 -12 -41 -5 -7 9 25 10 37 12 37 6z m170 -109 c0 -2 -10 -12 -22
-23 l-23 -19 19 23 c18 21 26 27 26 19z m-1336 -42 c27 -14 56 -25 65 -25 12
0 12 -3 3 -12 -10 -10 -15 -10 -22 2 -5 8 -10 12 -10 7 0 -9 -76 29 -85 43 -9
14 -7 13 49 -15z m1192 -9 c-10 -6 -41 -29 -70 -52 -50 -40 -90 -58 -194 -88
l-53 -15 3 47 c5 71 9 73 98 70 43 -2 76 0 74 3 -5 9 44 21 55 15 4 -3 17 3
27 13 25 22 45 30 63 23 12 -5 11 -8 -3 -16z m-2727 -2 c34 -4 53 -15 87 -50
24 -24 44 -49 44 -55 0 -5 3 -8 8 -6 4 3 8 -25 10 -61 1 -37 5 -75 8 -84 3
-10 0 -18 -6 -18 -6 0 -9 -4 -6 -9 6 -8 -31 -63 -46 -69 -5 -2 -8 -10 -8 -18
0 -8 -9 -14 -21 -14 -11 0 -18 -4 -15 -9 4 -5 -4 -7 -16 -3 -11 3 -19 1 -16
-4 11 -18 -112 -16 -163 2 -27 10 -49 22 -49 26 0 18 -43 56 -59 51 -12 -4
-13 -2 -3 4 12 9 7 42 -9 53 -5 3 -3 39 3 80 10 67 15 78 50 110 43 41 103 74
139 78 13 1 44 0 68 -4z m1903 -101 l3 -78 200 -3 c110 -1 206 2 214 7 8 5 15
35 19 80 2 39 9 71 13 71 11 0 11 -74 0 -122 -9 -37 -8 -38 20 -38 46 0 218
59 297 101 39 22 72 38 72 35 0 -12 -112 -73 -188 -101 -129 -49 -218 -58
-481 -53 -174 4 -234 9 -263 21 -20 8 -40 12 -44 9 -4 -4 -4 -1 0 6 5 8 0 12
-13 12 -11 0 -23 5 -27 12 -5 8 0 9 17 5 13 -4 41 -7 62 -7 25 0 36 -4 32 -11
-4 -6 -13 -8 -21 -5 -8 3 -14 1 -14 -4 0 -6 11 -10 24 -10 13 0 32 -3 40 -6
13 -5 16 0 14 22 -4 60 2 134 12 134 5 0 10 -35 12 -77z m118 57 c0 -5 -12
-10 -27 -9 l-28 1 25 8 c14 4 26 8 28 9 1 1 2 -3 2 -9z m238 4 c16 -5 22 -14
22 -34 0 -31 -31 -45 -75 -34 -22 5 -25 11 -23 40 2 29 6 34 28 34 14 0 35 -3
48 -6z m707 -178 l135 -134 -107 -6 c-99 -6 -213 -8 -353 -6 -55 0 -55 1 -83
47 -32 52 -38 44 73 102 41 22 102 60 135 85 33 24 61 45 63 45 1 1 63 -59
137 -133z m-930 114 c4 -6 -8 -10 -29 -10 -19 0 -38 5 -41 10 -4 6 8 10 29 10
19 0 38 -4 41 -10z m1863 -114 c-4 -6 -7 21 -7 60 l2 69 7 -60 c4 -33 3 -64
-2 -69z m19 52 c-3 -7 -5 -2 -5 12 0 14 2 19 5 13 2 -7 2 -19 0 -25z m495 -3
c41 -30 53 -62 53 -136 0 -59 -3 -70 -24 -88 -13 -12 -28 -21 -32 -21 -5 0 -6
-6 -4 -12 8 -20 -116 -23 -152 -5 -57 30 -77 62 -77 127 -1 33 1 60 4 60 3 0
14 14 24 30 36 61 55 72 121 68 40 -2 70 -10 87 -23z m-2397 -165 c3 -6 -4
-10 -17 -10 -18 0 -20 2 -8 10 19 12 18 12 25 0z m-1481 -35 c-4 -8 -11 -15
-16 -15 -6 0 -5 6 2 15 7 8 14 15 16 15 2 0 1 -7 -2 -15z m1093 -107 c-3 -8
-6 -5 -6 6 -1 11 2 17 5 13 3 -3 4 -12 1 -19z"/>
<path d="M4623 4663 c9 -2 25 -2 35 0 9 3 1 5 -18 5 -19 0 -27 -2 -17 -5z"/>
<path d="M418 4543 c7 -3 16 -2 19 1 4 3 -2 6 -13 5 -11 0 -14 -3 -6 -6z"/>
<path d="M533 4543 c9 -2 23 -2 30 0 6 3 -1 5 -18 5 -16 0 -22 -2 -12 -5z"/>
<path d="M2349 4591 c-58 -8 -94 -28 -139 -76 l-25 -27 0 -208 0 -209 30 -31
c57 -59 83 -69 201 -76 148 -8 368 9 417 32 43 21 93 89 103 141 12 62 -1 265
-19 299 -21 41 -82 99 -137 132 -44 26 -50 27 -210 29 -91 1 -190 -2 -221 -6z
m412 -64 c54 -32 94 -72 108 -110 6 -16 11 -86 11 -156 0 -116 -2 -131 -23
-162 -42 -63 -66 -69 -315 -69 -211 -1 -225 0 -257 20 -20 12 -40 30 -45 40
-16 30 -13 344 4 385 28 66 104 85 326 81 137 -3 149 -4 191 -29z"/>
<path d="M2380 4463 c-14 -3 -28 -10 -32 -16 -7 -12 0 -319 8 -327 3 -2 82 -4
176 -3 193 3 210 8 227 70 6 21 11 64 11 95 0 53 -2 59 -35 85 -25 20 -35 36
-35 56 0 20 -7 30 -26 37 -25 10 -245 12 -294 3z m263 -53 c5 -19 0 -20 -124
-20 -71 0 -129 4 -129 8 0 25 30 32 136 32 103 0 112 -2 117 -20z m60 -71 c28
-15 37 -28 37 -58 0 -24 -1 -24 -77 -17 -42 3 -120 6 -175 6 l-98 0 0 33 c0
19 3 37 7 40 11 12 283 8 306 -4z m-3 -125 c8 -8 6 -17 -7 -32 -16 -20 -31
-23 -160 -28 l-143 -7 0 36 c0 36 0 36 48 40 88 8 251 2 262 -9z"/>
<path d="M2232 2515 c5 -31 61 -36 344 -33 203 2 265 6 277 17 41 34 23 36
-303 36 -313 0 -321 0 -318 -20z"/>
<path d="M1932 3233 c-51 -25 -112 -93 -143 -158 -56 -117 -34 -244 58 -339
76 -79 168 -96 261 -50 177 88 224 350 89 493 -18 18 -50 42 -72 52 -50 23
-148 25 -193 2z"/>
<path d="M3032 3234 c-63 -24 -135 -98 -161 -169 -19 -49 -22 -74 -19 -135 7
-117 61 -204 153 -246 131 -61 271 -1 339 145 30 66 29 198 -2 258 -68 131
-193 190 -310 147z"/>
<path d="M4633 2333 c9 -2 23 -2 30 0 6 3 -1 5 -18 5 -16 0 -22 -2 -12 -5z"/>
<path d="M438 1153 c7 -3 16 -2 19 1 4 3 -2 6 -13 5 -11 0 -14 -3 -6 -6z"/>
<path d="M270 1010 c0 -5 5 -10 11 -10 5 0 7 5 4 10 -3 6 -8 10 -11 10 -2 0
-4 -4 -4 -10z"/>
<path d="M2378 343 c7 -3 16 -2 19 1 4 3 -2 6 -13 5 -11 0 -14 -3 -6 -6z"/>
<path d="M2328 333 c7 -3 16 -2 19 1 4 3 -2 6 -13 5 -11 0 -14 -3 -6 -6z"/>
<path d="M4777 319 c7 -7 15 -10 18 -7 3 3 -2 9 -12 12 -14 6 -15 5 -6 -5z"/>
</g>
</svg>
